<svg xmlns="http://www.w3.org/2000/svg" width="80" height="80" viewBox="0 0 80 80">
  <g id="Group_18480" data-name="Group 18480" transform="translate(-1072 -20)">
    <path id="Path_39842" data-name="Path 39842" d="M8.2,0H66.449a8.237,8.237,0,0,1,8.2,8.271V65.616a8.237,8.237,0,0,1-8.2,8.271H8.2A8.237,8.237,0,0,1,0,65.616V8.271A8.237,8.237,0,0,1,8.2,0Z" transform="translate(1077.348 26.113)" fill="#bf8b8c"/>
    <path id="Path_39766" data-name="Path 39766" d="M8.2,0H66.449a8.237,8.237,0,0,1,8.2,8.271V65.617a8.237,8.237,0,0,1-8.2,8.271H8.2A8.237,8.237,0,0,1,0,65.617V8.271A8.237,8.237,0,0,1,8.2,0Z" transform="translate(1072 20)" fill="#911a1c"/>
  </g>
</svg>
