<svg xmlns="http://www.w3.org/2000/svg" width="80" height="80" viewBox="0 0 80 80">
  <g id="Group_18506" data-name="Group 18506" transform="translate(-1072 -20)">
    <path id="Path_39842" data-name="Path 39842" d="M8.2,0H66.449a8.237,8.237,0,0,1,8.2,8.271V65.616a8.237,8.237,0,0,1-8.2,8.271H8.2A8.237,8.237,0,0,1,0,65.616V8.271A8.237,8.237,0,0,1,8.2,0Z" transform="translate(1077.348 26.113)" fill="#fff5d5"/>
    <path id="Path_39766" data-name="Path 39766" d="M8.2,0H66.449a8.237,8.237,0,0,1,8.2,8.271V65.617a8.237,8.237,0,0,1-8.2,8.271H8.2A8.237,8.237,0,0,1,0,65.617V8.271A8.237,8.237,0,0,1,8.2,0Z" transform="translate(1072 20)" fill="#edba0c"/>
    <g id="Group_18198" data-name="Group 18198" transform="translate(7.574 -3.506)">
      <path id="Path_39844" data-name="Path 39844" d="M-7981.574-22309.494h32.975" transform="translate(9067 22357)" fill="none" stroke="#fff" stroke-linecap="round" stroke-width="3"/>
      <path id="Path_39846" data-name="Path 39846" d="M-7981.574-22309.494h32.975" transform="translate(9067 22381.988)" fill="none" stroke="#fff" stroke-linecap="round" stroke-width="3"/>
      <path id="Path_39845" data-name="Path 39845" d="M-7981.574-22309.494h32.975" transform="translate(9067 22369.494)" fill="none" stroke="#fff" stroke-linecap="round" stroke-width="3"/>
    </g>
  </g>
</svg>
